<svg width="512" height="512" viewBox="0 0 512 512" fill="none" xmlns="http://www.w3.org/2000/svg">
<g clip-path="url(#clip0_745_717)">
<path fill-rule="evenodd" clip-rule="evenodd" d="M247.973 0.591774C242.29 1.79099 236.141 5.16412 231.253 9.7652C227.221 13.5608 224.504 18.8993 203.444 64.4132C182.376 109.941 166.695 142.735 165.132 144.534C164.162 145.651 162.058 147.271 160.458 148.134C158.078 149.415 132.118 153.888 78.5943 162.24C29.2689 169.936 23.5015 171.024 18.7575 173.529C11.448 177.388 6.8388 182.091 3.25297 189.35C0.426991 195.072 0.0480843 196.882 0.00314645 204.872C-0.0397488 212.69 0.329966 214.677 2.72903 219.523C6.4456 227.028 22.9133 247.54 36.0984 261.087C61.471 287.156 71.5002 290.754 115.863 289.701C155.835 288.753 208.153 280.403 268.372 265.361C277.923 262.976 280.065 263.409 278.825 267.48C278.441 268.74 276.589 270.19 274.409 270.94C266.713 273.586 238.282 287.274 218.514 297.849C164.677 326.65 128.529 354.647 109.126 382.573C101.758 393.18 97.9012 404.786 93.0398 430.989C88.6553 454.618 85.9866 475.297 86.6116 480.794C88.9678 501.521 108.751 516.051 127.718 510.987C131.308 510.029 144.277 503.496 159.789 494.833C174.113 486.833 193.645 475.957 203.195 470.662C212.744 465.368 226.302 457.77 233.323 453.776C251.701 443.326 255.275 441.825 259.726 442.687C261.776 443.084 276.091 450.27 291.538 458.657C345.109 487.74 357.488 494.408 372.1 502.05C386.777 509.725 386.792 509.731 395.079 509.685C402.12 509.646 404.263 509.175 409.273 506.571C415.956 503.097 423.657 495.123 426.024 489.225C428.674 482.621 429.248 474.501 427.727 465.123C426.297 456.318 418.534 410.907 410.52 364.484C405.338 334.461 404.965 330.054 407.222 325.645C408.12 323.889 430.659 300.081 457.308 272.738C508.07 220.654 508.689 219.913 511.329 207.996C514.491 193.725 506.154 176.636 493.052 170.532C486.225 167.351 484.394 167.008 443.204 161.201C383.692 152.811 361.441 149.545 356.314 148.449C345.932 146.231 347.368 148.574 313.571 78.7602C290.052 30.1796 281.703 13.896 278.618 10.5888C271.076 2.50392 258.442 -1.61832 247.973 0.591774Z" fill="url(#paint0_linear_745_717)"/>
</g>
<defs>
<linearGradient id="paint0_linear_745_717" x1="271.5" y1="512" x2="376.75" y2="5.91137e-06" gradientUnits="userSpaceOnUse">
<stop stop-color="#FD8912"/>
<stop offset="1" stop-color="#FBBE30"/>
</linearGradient>
<clipPath id="clip0_745_717">
<rect width="512" height="512" fill="white"/>
</clipPath>
</defs>
</svg>
